<svg width="16" height="16" viewBox="0 0 16 16" fill="none" xmlns="http://www.w3.org/2000/svg">
<path d="M12.9652 3.44272C12.3048 2.78707 11.5202 2.26991 10.6574 1.92159C9.79448 1.57327 8.87071 1.40081 7.94028 1.41433C6.19365 1.40996 4.51683 2.09962 3.27869 3.33159C2.04055 4.56355 1.34251 6.23691 1.33815 7.98354C1.33378 9.73017 2.02344 11.407 3.2554 12.6451C4.48737 13.8833 6.16073 14.5813 7.90736 14.5857C8.28372 14.5921 8.65156 14.4733 8.95313 14.248C9.25469 14.0228 9.47291 13.7037 9.57353 13.341C9.63767 13.079 9.63701 12.8054 9.5716 12.5438C9.50619 12.2822 9.37801 12.0404 9.19815 11.8395C9.15656 11.7921 9.12942 11.7339 9.11996 11.6716C9.1105 11.6093 9.1191 11.5456 9.14476 11.488C9.17041 11.4305 9.21203 11.3815 9.26469 11.3469C9.31734 11.3123 9.37882 11.2935 9.44182 11.2928H10.5285C11.5512 11.2976 12.5378 10.9153 13.2903 10.2227C14.0428 9.53005 14.5054 8.57838 14.5852 7.55877C14.6097 6.79852 14.4787 6.04129 14.2001 5.3335C13.9215 4.62572 13.5013 3.9823 12.9652 3.44272V3.44272ZM10.5548 9.97571H9.46816C9.15081 9.97391 8.83977 10.0642 8.57274 10.2357C8.30572 10.4072 8.09419 10.6525 7.96381 10.9418C7.83344 11.2312 7.78982 11.5521 7.83825 11.8658C7.88667 12.1794 8.02507 12.4722 8.23664 12.7088C8.27783 12.7503 8.30695 12.8023 8.32087 12.8592C8.33479 12.916 8.33299 12.9756 8.31567 13.0315C8.28274 13.1698 8.13127 13.2554 7.92711 13.2685C7.17919 13.259 6.44188 13.0902 5.76424 12.7736C5.08659 12.4569 4.48413 11.9996 3.99694 11.432C3.50975 10.8645 3.14899 10.1997 2.93867 9.4819C2.72834 8.76409 2.67327 8.00974 2.77712 7.269C2.96492 6.02427 3.58686 4.88606 4.53295 4.05567C5.47903 3.22528 6.6883 2.75623 7.94687 2.73147H7.99955C8.74429 2.72172 9.48344 2.86121 10.1734 3.14172C10.8634 3.42222 11.4902 3.83807 12.0168 4.36471C12.4278 4.77592 12.7506 5.26653 12.9658 5.80661C13.1809 6.34669 13.2838 6.92494 13.2681 7.50608C13.1999 8.17984 12.8852 8.80464 12.3844 9.26048C11.8836 9.71631 11.232 9.97103 10.5548 9.97571V9.97571Z" fill="white"/>
<path d="M7.99955 5.36574C8.54513 5.36574 8.98741 4.92347 8.98741 4.37789C8.98741 3.83232 8.54513 3.39004 7.99955 3.39004C7.45398 3.39004 7.0117 3.83232 7.0117 4.37789C7.0117 4.92347 7.45398 5.36574 7.99955 5.36574Z" fill="white"/>
<path d="M10.1399 4.83889C9.97076 4.93659 9.83438 5.08225 9.74801 5.25745C9.66163 5.43264 9.62913 5.62951 9.65462 5.82317C9.68011 6.01684 9.76244 6.1986 9.8912 6.34548C10.02 6.49236 10.1894 6.59777 10.378 6.64839C10.5667 6.699 10.7661 6.69255 10.9511 6.62985C11.1361 6.56715 11.2984 6.45101 11.4174 6.29611C11.5364 6.14121 11.6068 5.95452 11.6197 5.75961C11.6326 5.56471 11.5875 5.37035 11.49 5.2011C11.4251 5.08862 11.3388 4.99001 11.2359 4.91092C11.1329 4.83183 11.0154 4.77381 10.89 4.74017C10.7646 4.70653 10.6338 4.69793 10.5051 4.71487C10.3764 4.73181 10.2523 4.77395 10.1399 4.83889V4.83889Z" fill="white"/>
<path d="M5.85921 4.83889C5.68996 4.74137 5.4956 4.69622 5.3007 4.70914C5.1058 4.72206 4.9191 4.79247 4.7642 4.91147C4.6093 5.03047 4.49317 5.19273 4.43046 5.37772C4.36776 5.56272 4.36131 5.76215 4.41193 5.95081C4.46254 6.13947 4.56795 6.30889 4.71483 6.43765C4.86172 6.56641 5.04347 6.64874 5.23714 6.67423C5.4308 6.69972 5.62767 6.66722 5.80286 6.58085C5.97806 6.49447 6.12372 6.35809 6.22142 6.18895C6.28636 6.07654 6.3285 5.95243 6.34544 5.82372C6.36238 5.69502 6.35378 5.56423 6.32014 5.43885C6.2865 5.31346 6.22848 5.19594 6.14939 5.09299C6.0703 4.99005 5.97169 4.9037 5.85921 4.83889V4.83889Z" fill="white"/>
<path d="M4.15352 7.51267C3.99149 7.62208 3.86557 7.7771 3.7917 7.95811C3.71783 8.13913 3.69933 8.33799 3.73854 8.52952C3.77776 8.72105 3.87293 8.89664 4.012 9.03405C4.15106 9.17147 4.32778 9.26453 4.51977 9.30145C4.71175 9.33837 4.91038 9.31749 5.0905 9.24146C5.27061 9.16543 5.42412 9.03766 5.53157 8.87433C5.63903 8.71101 5.69561 8.51947 5.69414 8.32397C5.69268 8.12847 5.63323 7.9378 5.52334 7.7761C5.45115 7.66833 5.3583 7.57593 5.25017 7.50427C5.14204 7.43261 5.02078 7.3831 4.89339 7.3586C4.766 7.3341 4.63502 7.3351 4.50803 7.36155C4.38103 7.388 4.26054 7.43936 4.15352 7.51267V7.51267Z" fill="white"/>
</svg>
