<svg width="26" height="24" viewBox="0 0 26 24" fill="none" xmlns="http://www.w3.org/2000/svg">
<path d="M14.0475 9.69249L18.6715 1.44249C18.738 1.32399 18.8635 1.25049 19 1.25049C19.136 1.25049 19.262 1.32399 19.328 1.44249L23.952 9.69249C23.984 9.74999 24 9.81299 24 9.87599C24 10.0685 23.8455 10.2505 23.624 10.2505H14.376C14.156 10.2505 14 10.0705 14 9.87599C14 9.81299 14.0155 9.74999 14.0475 9.69249Z" fill="#788290"/>
<path d="M6.999 22.7495C9.75987 22.7495 11.998 20.5114 11.998 17.7505C11.998 14.9896 9.75987 12.7515 6.999 12.7515C4.23813 12.7515 2 14.9896 2 17.7505C2 20.5114 4.23813 22.7495 6.999 22.7495Z" fill="#788290"/>
<path d="M23.5 14.2515C23.5 13.7735 23.121 13.2515 22.5 13.2515H15.5C14.88 13.2515 14.5 13.7705 14.5 14.2515V21.2515C14.5 21.8725 15.02 22.2515 15.5 22.2515H22.5C22.978 22.2515 23.5 21.8725 23.5 21.2515V14.2515ZM16 14.7515H22V20.7515H16V14.7515Z" fill="#788290"/>
</svg>
