<svg width="16" height="16" viewBox="0 0 16 16" fill="none" xmlns="http://www.w3.org/2000/svg">
<path fill-rule="evenodd" clip-rule="evenodd" d="M5.85589 2.75574H3.14231C2.65267 2.75574 2.25574 3.15267 2.25574 3.64231V12.3571C2.25574 12.8467 2.65267 13.2436 3.14231 13.2436H5.85589C6.34553 13.2436 6.74246 12.8467 6.74246 12.3571V3.64231C6.74246 3.15267 6.34553 2.75574 5.85589 2.75574ZM3.14231 1.5C1.95914 1.5 1 2.45914 1 3.64231V12.3571C1 13.5402 1.95914 14.4994 3.14231 14.4994H5.85589C7.03906 14.4994 7.9982 13.5402 7.9982 12.3571V3.64231C7.9982 2.45914 7.03906 1.5 5.85589 1.5H3.14231Z" fill="white"/>
<path fill-rule="evenodd" clip-rule="evenodd" d="M12.8577 2.75574H11.1439C10.6542 2.75574 10.2573 3.15267 10.2573 3.6423V5.35615C10.2573 5.84579 10.6542 6.24272 11.1438 6.24272H12.8577C13.3473 6.24272 13.7443 5.84579 13.7443 5.35615V3.64231C13.7443 3.15267 13.3473 2.75574 12.8577 2.75574ZM11.1439 1.5C9.96069 1.5 9.00154 2.45914 9.00154 3.6423V5.35615C9.00154 6.53931 9.96069 7.49846 11.1438 7.49846H12.8577C14.0409 7.49846 15 6.53931 15 5.35615V3.64231C15 2.45914 14.0409 1.5 12.8577 1.5H11.1439Z" fill="white"/>
<path fill-rule="evenodd" clip-rule="evenodd" d="M12.8577 9.75534H11.1439C10.6542 9.75534 10.2573 10.1523 10.2573 10.6419V12.3558C10.2573 12.8454 10.6542 13.2423 11.1438 13.2423H12.8577C13.3473 13.2423 13.7443 12.8454 13.7443 12.3558V10.6419C13.7443 10.1523 13.3473 9.75534 12.8577 9.75534ZM11.1439 8.4996C9.96069 8.4996 9.00154 9.45875 9.00154 10.6419V12.3558C9.00154 13.5389 9.96069 14.4981 11.1438 14.4981H12.8577C14.0409 14.4981 15 13.5389 15 12.3558V10.6419C15 9.45875 14.0409 8.4996 12.8577 8.4996H11.1439Z" fill="white"/>
</svg>
