<svg width="25" height="24" viewBox="0 0 25 24" fill="none" xmlns="http://www.w3.org/2000/svg">
<path d="M23.1665 2.5C23.1665 2.022 22.7875 1.5 22.1665 1.5H3.1665C2.5465 1.5 2.1665 2.019 2.1665 2.5V6.5C2.1665 7.121 2.6865 7.5 3.1665 7.5H22.1665C22.6445 7.5 23.1665 7.121 23.1665 6.5V2.5ZM3.6665 3H21.6665V6H3.6665V3Z" fill="#788290"/>
<path d="M8.1665 10C8.1665 9.522 7.7875 9 7.1665 9H3.1665C2.5465 9 2.1665 9.519 2.1665 10V21.5C2.1665 22.121 2.6865 22.5 3.1665 22.5H7.1665C7.6445 22.5 8.1665 22.121 8.1665 21.5V10ZM3.6665 10.5H6.6665V21H3.6665V10.5Z" fill="#788290"/>
<path d="M23.1665 10C23.1665 9.522 22.7875 9 22.1665 9H10.6665C10.0465 9 9.6665 9.519 9.6665 10V14C9.6665 14.621 10.1865 15 10.6665 15H22.1665C22.6445 15 23.1665 14.621 23.1665 14V10ZM11.1665 10.5H21.6665V13.5H11.1665V10.5Z" fill="#788290"/>
<path d="M23.1665 17.5C23.1665 17.022 22.7875 16.5 22.1665 16.5H10.6665C10.0465 16.5 9.6665 17.019 9.6665 17.5V21.5C9.6665 22.121 10.1865 22.5 10.6665 22.5H22.1665C22.6445 22.5 23.1665 22.121 23.1665 21.5V17.5ZM11.1665 18H21.6665V21H11.1665V18Z" fill="#788290"/>
</svg>
