<svg width="16" height="16" viewBox="0 0 16 16" fill="none" xmlns="http://www.w3.org/2000/svg">
<path d="M13.5333 8.95333C13.3654 8.90098 13.1835 8.91715 13.0274 8.99833C12.8713 9.0795 12.7536 9.21909 12.7 9.38667C12.385 10.3497 11.771 11.187 10.9473 11.7769C10.1236 12.3669 9.13311 12.6785 8.12 12.6667C6.8669 12.6809 5.65929 12.1976 4.76198 11.3228C3.86467 10.448 3.3509 9.25306 3.33333 8C3.3509 6.74694 3.86467 5.55199 4.76198 4.67718C5.65929 3.80236 6.8669 3.31909 8.12 3.33333C9.25172 3.3306 10.3486 3.72454 11.22 4.44667L9.77333 4.20667C9.68663 4.1924 9.59797 4.19542 9.51243 4.21554C9.4269 4.23566 9.34619 4.27249 9.27494 4.32391C9.20369 4.37533 9.14331 4.44034 9.09727 4.51518C9.05123 4.59002 9.02044 4.67322 9.00667 4.76C8.9924 4.8467 8.99542 4.93537 9.01554 5.0209C9.03566 5.10643 9.07249 5.18715 9.12391 5.25839C9.17533 5.32964 9.24033 5.39002 9.31517 5.43606C9.39002 5.4821 9.47322 5.5129 9.56 5.52667L12.3867 5.99333H12.5C12.5773 5.99324 12.654 5.97971 12.7267 5.95333C12.7511 5.94406 12.7737 5.93052 12.7933 5.91333C12.8411 5.89556 12.8861 5.87085 12.9267 5.84L12.9867 5.76667C12.9867 5.73333 13.0467 5.70667 13.0733 5.66667C13.1 5.62667 13.0733 5.6 13.1067 5.57333C13.1251 5.53451 13.1407 5.4944 13.1533 5.45333L13.6533 2.78667C13.67 2.69912 13.6692 2.60915 13.6511 2.5219C13.6329 2.43465 13.5978 2.35183 13.5476 2.27816C13.4975 2.20449 13.4333 2.14143 13.3588 2.09255C13.2843 2.04368 13.2009 2.00997 13.1133 1.99333C13.0258 1.9767 12.9358 1.97747 12.8486 1.99561C12.7613 2.01374 12.6785 2.04889 12.6048 2.09903C12.4561 2.2003 12.3536 2.35652 12.32 2.53333L12.14 3.5C11.024 2.53283 9.59679 2.00029 8.12 2C6.51329 1.98578 4.96656 2.60953 3.8192 3.73439C2.67185 4.85924 2.01759 6.39332 2 8C2.01759 9.60668 2.67185 11.1408 3.8192 12.2656C4.96656 13.3905 6.51329 14.0142 8.12 14C9.42209 14.02 10.6962 13.6214 11.7548 12.8629C12.8133 12.1044 13.6003 11.0261 14 9.78667C14.0253 9.70131 14.0332 9.61176 14.0233 9.52329C14.0135 9.43482 13.986 9.34922 13.9425 9.27155C13.899 9.19388 13.8404 9.12571 13.7701 9.07105C13.6998 9.0164 13.6193 8.97637 13.5333 8.95333Z" fill="white"/>
</svg>
